<svg width="68" height="74" viewBox="0 0 68 74" fill="none" xmlns="http://www.w3.org/2000/svg">
<path d="M66.249 23.3172H59.6862V18.2238C59.6862 16.9535 58.9017 15.9253 57.9352 15.9253H35.751V12.4516H42.5368C43.3831 12.4516 44.0683 11.5506 44.0683 10.4397V4.3104C44.0683 3.19947 43.3819 2.29847 42.5368 2.29847H35.751C35.751 1.02818 34.9666 0 34 0C33.0334 0 32.249 1.02818 32.249 2.29847V15.9238H10.0648C9.09826 15.9238 8.31381 16.952 8.31381 18.2223V23.3157H1.75101C0.784454 23.3157 0 24.3439 0 25.6141V71.7015C0 72.9718 0.784454 74 1.75101 74H66.249C67.2155 74 68 72.9718 68 71.7015V25.6157C68 24.3469 67.2155 23.3172 66.249 23.3172ZM64.498 69.4046H3.50203V27.9141H10.0648H57.9352H64.498V69.4046ZM14.0198 31.6637V34.618C14.0198 35.4179 13.526 36.0661 12.9166 36.0661H7.11028C6.50093 36.0661 6.00714 35.4179 6.00714 34.618V31.6637C6.00714 30.8639 6.50093 30.2157 7.11028 30.2157H12.9166C13.526 30.2157 14.0198 30.8639 14.0198 31.6637ZM14.0198 42.0099V44.9642C14.0198 45.7641 13.526 46.4122 12.9166 46.4122H7.11028C6.50093 46.4122 6.00714 45.7641 6.00714 44.9642V42.0099C6.00714 41.21 6.50093 40.5619 7.11028 40.5619H12.9166C13.526 40.5603 14.0198 41.21 14.0198 42.0099ZM14.0198 52.3545V55.3088C14.0198 56.1087 13.526 56.7569 12.9166 56.7569H7.11028C6.50093 56.7569 6.00714 56.1087 6.00714 55.3088V52.3545C6.00714 51.5547 6.50093 50.9065 7.11028 50.9065H12.9166C13.526 50.9065 14.0198 51.5547 14.0198 52.3545ZM14.0198 62.6992V65.6535C14.0198 66.4534 13.526 67.1015 12.9166 67.1015H7.11028C6.50093 67.1015 6.00714 66.4534 6.00714 65.6535V62.6992C6.00714 61.8993 6.50093 61.2512 7.11028 61.2512H12.9166C13.526 61.2512 14.0198 61.8993 14.0198 62.6992ZM37.6468 31.6637V34.618C37.6468 35.4179 37.153 36.0661 36.5436 36.0661H30.7361C30.1268 36.0661 29.633 35.4179 29.633 34.618V31.6637C29.633 30.8639 30.1268 30.2157 30.7361 30.2157H36.5425C37.1518 30.2157 37.6468 30.8639 37.6468 31.6637ZM37.6468 42.0099V44.9642C37.6468 45.7641 37.153 46.4122 36.5436 46.4122H30.7361C30.1268 46.4122 29.633 45.7641 29.633 44.9642V42.0099C29.633 41.21 30.1268 40.5619 30.7361 40.5619H36.5425C37.1518 40.5603 37.6468 41.21 37.6468 42.0099ZM37.6468 52.3545V55.3088C37.6468 56.1087 37.153 56.7569 36.5436 56.7569H30.7361C30.1268 56.7569 29.633 56.1087 29.633 55.3088V52.3545C29.633 51.5547 30.1268 50.9065 30.7361 50.9065H36.5425C37.1518 50.9065 37.6468 51.5547 37.6468 52.3545ZM37.6468 62.6992V65.6535C37.6468 66.4534 37.153 67.1015 36.5436 67.1015H30.7361C30.1268 67.1015 29.633 66.4534 29.633 65.6535V62.6992C29.633 61.8993 30.1268 61.2512 30.7361 61.2512H36.5425C37.1518 61.2512 37.6468 61.8993 37.6468 62.6992ZM25.8333 31.6637V34.618C25.8333 35.4179 25.3395 36.0661 24.7301 36.0661H18.9226C18.3133 36.0661 17.8195 35.4179 17.8195 34.618V31.6637C17.8195 30.8639 18.3133 30.2157 18.9226 30.2157H24.729C25.3395 30.2157 25.8333 30.8639 25.8333 31.6637ZM25.8333 42.0099V44.9642C25.8333 45.7641 25.3395 46.4122 24.7301 46.4122H18.9226C18.3133 46.4122 17.8195 45.7641 17.8195 44.9642V42.0099C17.8195 41.21 18.3133 40.5619 18.9226 40.5619H24.729C25.3395 40.5603 25.8333 41.21 25.8333 42.0099ZM25.8333 52.3545V55.3088C25.8333 56.1087 25.3395 56.7569 24.7301 56.7569H18.9226C18.3133 56.7569 17.8195 56.1087 17.8195 55.3088V52.3545C17.8195 51.5547 18.3133 50.9065 18.9226 50.9065H24.729C25.3395 50.9065 25.8333 51.5547 25.8333 52.3545ZM25.8333 62.6992V65.6535C25.8333 66.4534 25.3395 67.1015 24.7301 67.1015H18.9226C18.3133 67.1015 17.8195 66.4534 17.8195 65.6535V62.6992C17.8195 61.8993 18.3133 61.2512 18.9226 61.2512H24.729C25.3395 61.2512 25.8333 61.8993 25.8333 62.6992ZM50.1805 31.6637V34.618C50.1805 35.4179 49.6867 36.0661 49.0774 36.0661H43.271C42.6617 36.0661 42.1679 35.4179 42.1679 34.618V31.6637C42.1679 30.8639 42.6617 30.2157 43.271 30.2157H49.0774C49.6856 30.2157 50.1805 30.8639 50.1805 31.6637ZM50.1805 42.0099V44.9642C50.1805 45.7641 49.6867 46.4122 49.0774 46.4122H43.271C42.6617 46.4122 42.1679 45.7641 42.1679 44.9642V42.0099C42.1679 41.21 42.6617 40.5619 43.271 40.5619H49.0774C49.6856 40.5603 50.1805 41.21 50.1805 42.0099ZM50.1805 52.3545V55.3088C50.1805 56.1087 49.6867 56.7569 49.0774 56.7569H43.271C42.6617 56.7569 42.1679 56.1087 42.1679 55.3088V52.3545C42.1679 51.5547 42.6617 50.9065 43.271 50.9065H49.0774C49.6856 50.9065 50.1805 51.5547 50.1805 52.3545ZM50.1805 62.6992V65.6535C50.1805 66.4534 49.6867 67.1015 49.0774 67.1015H43.271C42.6617 67.1015 42.1679 66.4534 42.1679 65.6535V62.6992C42.1679 61.8993 42.6617 61.2512 43.271 61.2512H49.0774C49.6856 61.2512 50.1805 61.8993 50.1805 62.6992ZM55.0834 30.2157H60.8897C61.4991 30.2157 61.9929 30.8639 61.9929 31.6637V34.618C61.9929 35.4179 61.4991 36.0661 60.8897 36.0661H55.0834C54.474 36.0661 53.9802 35.4179 53.9802 34.618V31.6637C53.9791 30.8639 54.474 30.2157 55.0834 30.2157ZM53.9791 44.9642V42.0099C53.9791 41.21 54.4728 40.5619 55.0822 40.5619H60.8886C61.4979 40.5619 61.9917 41.21 61.9917 42.0099V44.9642C61.9917 45.7641 61.4979 46.4122 60.8886 46.4122H55.0822C54.474 46.4122 53.9791 45.7641 53.9791 44.9642ZM61.9929 52.3545V55.3088C61.9929 56.1087 61.4991 56.7569 60.8897 56.7569H55.0834C54.474 56.7569 53.9802 56.1087 53.9802 55.3088V52.3545C53.9802 51.5547 54.474 50.9065 55.0834 50.9065H60.8897C61.4991 50.9065 61.9929 51.5547 61.9929 52.3545ZM61.9929 62.6992V65.6535C61.9929 66.4534 61.4991 67.1015 60.8897 67.1015H55.0834C54.474 67.1015 53.9802 66.4534 53.9802 65.6535V62.6992C53.9802 61.8993 54.474 61.2512 55.0834 61.2512H60.8897C61.4991 61.2512 61.9929 61.8993 61.9929 62.6992Z" fill="url(#paint0_linear)"/>
<defs>
<linearGradient id="paint0_linear" x1="0" y1="0" x2="72.5531" y2="69.2283" gradientUnits="userSpaceOnUse">
<stop stop-color="#45A1FA"/>
<stop offset="1" stop-color="#0074E4"/>
</linearGradient>
</defs>
</svg>
