<svg width="68" height="65" viewBox="0 0 68 65" fill="none" xmlns="http://www.w3.org/2000/svg">
<path d="M19.4268 64.1339C17.0457 64.1339 15.1094 62.3362 15.1094 60.1255C15.1094 57.9149 17.0457 56.1172 19.4268 56.1172C20.0234 56.1172 20.5062 56.5649 20.5062 57.1193C20.5062 57.6737 20.0234 58.1214 19.4268 58.1214C18.2362 58.1214 17.2681 59.0202 17.2681 60.1255C17.2681 61.2309 18.2362 62.1297 19.4268 62.1297C20.0234 62.1297 20.5062 62.5774 20.5062 63.1318C20.5062 63.6862 20.0234 64.1339 19.4268 64.1339Z" fill="url(#paint0_linear)"/>
<path d="M59.3672 58.1214H19.4309C18.8338 58.1214 18.3516 57.6737 18.3516 57.1193C18.3516 56.5649 18.8338 56.1172 19.4309 56.1172H59.3672C59.9638 56.1172 60.4466 56.5649 60.4466 57.1193C60.4466 57.6737 59.9638 58.1214 59.3672 58.1214Z" fill="url(#paint1_linear)"/>
<path d="M59.3672 64.1341H19.4309C18.8338 64.1341 18.3516 63.6864 18.3516 63.132C18.3516 62.5776 18.8338 62.1299 19.4309 62.1299H59.3672C59.9638 62.1299 60.4466 62.5776 60.4466 63.132C60.4466 63.6864 59.9638 64.1341 59.3672 64.1341Z" fill="url(#paint2_linear)"/>
<path d="M59.3645 58.1218C58.7674 58.1218 58.2852 57.6741 58.2852 57.1197C58.2852 56.5653 58.7674 56.1176 59.3645 56.1176C60.5546 56.1176 61.5232 55.2188 61.5232 54.1134C61.5232 53.559 62.0055 53.1113 62.6026 53.1113C63.1992 53.1113 63.682 53.559 63.682 54.1134C63.682 56.3241 61.7451 58.1218 59.3645 58.1218Z" fill="url(#paint3_linear)"/>
<path d="M62.6026 5.01045C62.0055 5.01045 61.5232 4.56127 61.5232 4.00836C61.5232 2.90303 60.5546 2.00418 59.3645 2.00418C58.7674 2.00418 58.2852 1.555 58.2852 1.00209C58.2852 0.449179 58.7674 0 59.3645 0C61.7451 0 63.682 1.79769 63.682 4.00836C63.682 4.56127 63.1992 5.01045 62.6026 5.01045Z" fill="url(#paint4_linear)"/>
<path d="M16.1926 5.01045C15.5955 5.01045 15.1133 4.56127 15.1133 4.00836C15.1133 1.79769 17.0496 0 19.4307 0C20.0273 0 20.5101 0.449179 20.5101 1.00209C20.5101 1.555 20.0273 2.00418 19.4307 2.00418C18.2402 2.00418 17.272 2.90303 17.272 4.00836C17.272 4.56127 16.7892 5.01045 16.1926 5.01045Z" fill="url(#paint5_linear)"/>
<path d="M59.3645 64.1335C58.7674 64.1335 58.2852 63.6858 58.2852 63.1314C58.2852 62.577 58.7674 62.1293 59.3645 62.1293C60.5546 62.1293 61.5232 61.2305 61.5232 60.1251C61.5232 59.5708 62.0055 59.123 62.6026 59.123C63.1992 59.123 63.682 59.5708 63.682 60.1251C63.682 62.3358 61.7451 64.1335 59.3645 64.1335Z" fill="url(#paint6_linear)"/>
<path d="M62.6032 24.0505C62.3265 24.0505 62.0503 23.9521 61.8401 23.7569C61.4179 23.3649 61.4179 22.7318 61.8401 22.3399L65.8413 18.6251V7.01492H62.6032C62.0061 7.01492 61.5238 6.56574 61.5238 6.01283C61.5238 5.45992 62.0061 5.01074 62.6032 5.01074H66.9206C67.5172 5.01074 68 5.45992 68 6.01283V19.04C68 19.3057 67.8861 19.5611 67.6832 19.7485L63.3658 23.7569C63.1555 23.9521 62.8794 24.0505 62.6032 24.0505Z" fill="url(#paint7_linear)"/>
<path d="M59.3633 2.00418H19.427C18.8299 2.00418 18.3477 1.555 18.3477 1.00209C18.3477 0.449179 18.8299 0 19.427 0H59.3633C59.9599 0 60.4426 0.449179 60.4426 1.00209C60.4426 1.555 59.9599 2.00418 59.3633 2.00418Z" fill="url(#paint8_linear)"/>
<path d="M16.1887 61.1271C15.5916 61.1271 15.1094 60.6794 15.1094 60.125V4.00795C15.1094 3.45504 15.5916 3.00586 16.1887 3.00586C16.7853 3.00586 17.2681 3.45504 17.2681 4.00795V60.125C17.2681 60.6794 16.7853 61.1271 16.1887 61.1271Z" fill="url(#paint9_linear)"/>
<path d="M58.2866 61.1272H20.509C19.9119 61.1272 19.4297 60.6795 19.4297 60.1251C19.4297 59.5708 19.9119 59.123 20.509 59.123H58.2866C58.8832 59.123 59.366 59.5708 59.366 60.1251C59.366 60.6795 58.8832 61.1272 58.2866 61.1272Z" fill="url(#paint10_linear)"/>
<path d="M58.2864 61.1276C57.6893 61.1276 57.207 60.6799 57.207 60.1255V57.1193C57.207 56.5649 57.6893 56.1172 58.2864 56.1172C58.883 56.1172 59.3657 56.5649 59.3657 57.1193V60.1255C59.3657 60.6799 58.883 61.1276 58.2864 61.1276Z" fill="url(#paint11_linear)"/>
<path d="M20.509 61.1276C19.9119 61.1276 19.4297 60.6799 19.4297 60.1255V57.1193C19.4297 56.5649 19.9119 56.1172 20.509 56.1172C21.1056 56.1172 21.5884 56.5649 21.5884 57.1193V60.1255C21.5884 60.6799 21.1056 61.1276 20.509 61.1276Z" fill="url(#paint12_linear)"/>
<path d="M62.6028 61.1271C62.0057 61.1271 61.5234 60.6794 61.5234 60.125V4.00795C61.5234 3.45504 62.0057 3.00586 62.6028 3.00586C63.1994 3.00586 63.6822 3.45504 63.6822 4.00795V60.125C63.6822 60.6794 63.1994 61.1271 62.6028 61.1271Z" fill="url(#paint13_linear)"/>
<path d="M16.1888 7.01492H1.07936C0.482233 7.01492 0 6.56574 0 6.01283C0 5.45992 0.482233 5.01074 1.07936 5.01074H16.1888C16.7859 5.01074 17.2682 5.45992 17.2682 6.01283C17.2682 6.56574 16.7859 7.01492 16.1888 7.01492Z" fill="url(#paint14_linear)"/>
<path d="M16.1904 57.1194H6.4778C5.88067 57.1194 5.39844 56.6717 5.39844 56.1173C5.39844 55.5629 5.88067 55.1152 6.4778 55.1152H16.1904C16.7876 55.1152 17.2698 55.5629 17.2698 56.1173C17.2698 56.6717 16.7876 57.1194 16.1904 57.1194Z" fill="url(#paint15_linear)"/>
<path d="M1.07936 52.109C0.482233 52.109 0 51.6613 0 51.1069V6.01283C0 5.45992 0.482233 5.01074 1.07936 5.01074C1.67596 5.01074 2.15872 5.45992 2.15872 6.01283V51.1069C2.15872 51.6613 1.67596 52.109 1.07936 52.109Z" fill="url(#paint16_linear)"/>
<path d="M6.47655 57.1195C6.19986 57.1195 5.92369 57.0211 5.71341 56.8259L0.316614 51.8155C-0.105538 51.4235 -0.105538 50.7904 0.316614 50.3984C0.738238 50.0065 1.42074 50.0065 1.84237 50.3984L7.23916 55.4089C7.66131 55.8008 7.66131 56.434 7.23916 56.8259C7.02888 57.0211 6.75271 57.1195 6.47655 57.1195Z" fill="url(#paint17_linear)"/>
<path d="M6.4778 57.1191C5.88067 57.1191 5.39844 56.6714 5.39844 56.117V51.1066C5.39844 50.5522 5.88067 50.1045 6.4778 50.1045C7.0744 50.1045 7.55716 50.5522 7.55716 51.1066V56.117C7.55716 56.6714 7.0744 57.1191 6.4778 57.1191Z" fill="url(#paint18_linear)"/>
<path d="M6.47615 52.1087H1.07936C0.482233 52.1087 0 51.661 0 51.1066C0 50.5522 0.482233 50.1045 1.07936 50.1045H6.47615C7.07275 50.1045 7.55551 50.5522 7.55551 51.1066C7.55551 51.661 7.07275 52.1087 6.47615 52.1087Z" fill="url(#paint19_linear)"/>
<path d="M16.1896 21.0442H8.63405C8.03692 21.0442 7.55469 20.595 7.55469 20.0421C7.55469 19.4892 8.03692 19.04 8.63405 19.04H16.1896C16.7862 19.04 17.2689 19.4892 17.2689 20.0421C17.2689 20.595 16.7862 21.0442 16.1896 21.0442Z" fill="url(#paint20_linear)"/>
<path d="M16.1896 27.0569H8.63405C8.03692 27.0569 7.55469 26.6077 7.55469 26.0548C7.55469 25.5019 8.03692 25.0527 8.63405 25.0527H16.1896C16.7862 25.0527 17.2689 25.5019 17.2689 26.0548C17.2689 26.6077 16.7862 27.0569 16.1896 27.0569Z" fill="url(#paint21_linear)"/>
<path d="M16.1896 33.0686H8.63405C8.03692 33.0686 7.55469 32.6195 7.55469 32.0665C7.55469 31.5136 8.03692 31.0645 8.63405 31.0645H16.1896C16.7862 31.0645 17.2689 31.5136 17.2689 32.0665C17.2689 32.6195 16.7862 33.0686 16.1896 33.0686Z" fill="url(#paint22_linear)"/>
<path d="M16.1896 39.0813H8.63405C8.03692 39.0813 7.55469 38.6336 7.55469 38.0792C7.55469 37.5249 8.03692 37.0771 8.63405 37.0771H16.1896C16.7862 37.0771 17.2689 37.5249 17.2689 38.0792C17.2689 38.6336 16.7862 39.0813 16.1896 39.0813Z" fill="url(#paint23_linear)"/>
<path d="M49.6424 17.054H30.2161C29.6195 17.054 29.1367 16.6048 29.1367 16.0519C29.1367 15.4985 29.6195 15.0498 30.2161 15.0498H49.6424C50.2396 15.0498 50.7218 15.4985 50.7218 16.0519C50.7218 16.6048 50.2396 17.054 49.6424 17.054Z" fill="url(#paint24_linear)"/>
<path d="M39.9309 37.0991C39.3343 37.0991 38.8516 36.6514 38.8516 36.097V13.0451C38.8516 12.4917 39.3343 12.043 39.9309 12.043C40.528 12.043 41.0103 12.4917 41.0103 13.0451V36.098C41.0103 36.6514 40.528 37.0991 39.9309 37.0991Z" fill="url(#paint25_linear)"/>
<path d="M48.5679 37.0989H31.2981C30.7015 37.0989 30.2188 36.6512 30.2188 36.0968C30.2188 35.5429 30.7015 35.0947 31.2981 35.0947H48.5679C49.165 35.0947 49.6472 35.5429 49.6472 36.0968C49.6472 36.6512 49.165 37.0989 48.5679 37.0989Z" fill="url(#paint26_linear)"/>
<path d="M52.8869 44.1106H26.9739C26.3773 44.1106 25.8945 43.6624 25.8945 43.1085C25.8945 42.5542 26.3773 42.1064 26.9739 42.1064H52.8869C53.4841 42.1064 53.9663 42.5542 53.9663 43.1085C53.9663 43.6624 53.4841 44.1106 52.8869 44.1106Z" fill="url(#paint27_linear)"/>
<path d="M46.413 47.1165H33.4544C32.8578 47.1165 32.375 46.6683 32.375 46.1144C32.375 45.56 32.8578 45.1123 33.4544 45.1123H46.413C47.0101 45.1123 47.4923 45.56 47.4923 46.1144C47.4923 46.6683 47.0101 47.1165 46.413 47.1165Z" fill="url(#paint28_linear)"/>
<path d="M30.2159 29.0808C27.8347 29.0808 25.8984 27.2831 25.8984 25.0724C25.8984 24.519 26.3812 24.0703 26.9778 24.0703C27.5749 24.0703 28.0572 24.519 28.0572 25.0724C28.0572 26.1777 29.0253 27.0766 30.2159 27.0766C31.4064 27.0766 32.3746 26.1777 32.3746 25.0724C32.3746 24.519 32.8574 24.0703 33.4539 24.0703C34.0511 24.0703 34.5333 24.519 34.5333 25.0724C34.5333 27.2821 32.597 29.0808 30.2159 29.0808Z" fill="url(#paint29_linear)"/>
<path d="M33.4539 26.0745H26.9778C26.3812 26.0745 25.8984 25.6253 25.8984 25.0724C25.8984 24.519 26.3812 24.0703 26.9778 24.0703H33.4539C34.0511 24.0703 34.5333 24.519 34.5333 25.0724C34.5333 25.6253 34.0511 26.0745 33.4539 26.0745Z" fill="url(#paint30_linear)"/>
<path d="M26.9773 26.0743C26.8651 26.0743 26.7496 26.0572 26.6363 26.022C26.0719 25.8468 25.7651 25.2797 25.9544 24.7547L29.1924 15.7339C29.3811 15.2099 29.9867 14.9232 30.5574 15.1003C31.1224 15.2759 31.4286 15.843 31.2399 16.3681L28.0019 25.3888C27.8506 25.8086 27.4295 26.0743 26.9773 26.0743Z" fill="url(#paint31_linear)"/>
<path d="M33.4538 26.074C33.0016 26.074 32.5805 25.8083 32.4308 25.3884L29.1927 16.3677C29.0035 15.8427 29.3092 15.2756 29.8747 15.0999C30.4434 14.9238 31.0521 15.2095 31.2403 15.7335L34.4783 24.7543C34.667 25.2793 34.3619 25.8464 33.7958 26.0216C33.6815 26.0568 33.5671 26.074 33.4538 26.074Z" fill="url(#paint32_linear)"/>
<path d="M49.6417 29.0808C47.2605 29.0808 45.3242 27.2831 45.3242 25.0724C45.3242 24.519 45.807 24.0703 46.4036 24.0703C47.0007 24.0703 47.4829 24.519 47.4829 25.0724C47.4829 26.1777 48.4511 27.0766 49.6417 27.0766C50.8322 27.0766 51.8004 26.1777 51.8004 25.0724C51.8004 24.519 52.2831 24.0703 52.8797 24.0703C53.4769 24.0703 53.9591 24.519 53.9591 25.0724C53.9591 27.2821 52.0228 29.0808 49.6417 29.0808Z" fill="url(#paint33_linear)"/>
<path d="M52.8797 26.0745H46.4036C45.807 26.0745 45.3242 25.6253 45.3242 25.0724C45.3242 24.519 45.807 24.0703 46.4036 24.0703H52.8797C53.4769 24.0703 53.9591 24.519 53.9591 25.0724C53.9591 25.6253 53.4769 26.0745 52.8797 26.0745Z" fill="url(#paint34_linear)"/>
<path d="M46.407 26.0743C46.2948 26.0743 46.1793 26.0572 46.066 26.022C45.5016 25.8468 45.1948 25.2797 45.384 24.7547L48.6221 15.7339C48.8108 15.2099 49.4153 14.9232 49.9871 15.1003C50.5516 15.2759 50.8583 15.843 50.6696 16.3681L47.4316 25.3888C47.2803 25.8086 46.8592 26.0743 46.407 26.0743Z" fill="url(#paint35_linear)"/>
<path d="M52.8796 26.074C52.4274 26.074 52.0063 25.8083 51.8566 25.3884L48.6185 16.3677C48.4293 15.8427 48.735 15.2756 49.3005 15.0999C49.8692 14.9238 50.4768 15.2095 50.666 15.7335L53.9041 24.7543C54.0928 25.2793 53.7876 25.8464 53.2216 26.0216C53.1072 26.0568 52.9929 26.074 52.8796 26.074Z" fill="url(#paint36_linear)"/>
<defs>
<linearGradient id="paint0_linear" x1="15.1094" y1="56.1172" x2="22.4992" y2="61.2828" gradientUnits="userSpaceOnUse">
<stop stop-color="#45A1FA"/>
<stop offset="1" stop-color="#0074E4"/>
</linearGradient>
<linearGradient id="paint1_linear" x1="18.3516" y1="56.1172" x2="18.5316" y2="60.0432" gradientUnits="userSpaceOnUse">
<stop stop-color="#45A1FA"/>
<stop offset="1" stop-color="#0074E4"/>
</linearGradient>
<linearGradient id="paint2_linear" x1="18.3516" y1="62.1299" x2="18.5316" y2="66.0559" gradientUnits="userSpaceOnUse">
<stop stop-color="#45A1FA"/>
<stop offset="1" stop-color="#0074E4"/>
</linearGradient>
<linearGradient id="paint3_linear" x1="58.2852" y1="53.1113" x2="63.1724" y2="58.5774" gradientUnits="userSpaceOnUse">
<stop stop-color="#45A1FA"/>
<stop offset="1" stop-color="#0074E4"/>
</linearGradient>
<linearGradient id="paint4_linear" x1="58.2852" y1="0" x2="63.1724" y2="5.46605" gradientUnits="userSpaceOnUse">
<stop stop-color="#45A1FA"/>
<stop offset="1" stop-color="#0074E4"/>
</linearGradient>
<linearGradient id="paint5_linear" x1="15.1133" y1="0" x2="20.0005" y2="5.46605" gradientUnits="userSpaceOnUse">
<stop stop-color="#45A1FA"/>
<stop offset="1" stop-color="#0074E4"/>
</linearGradient>
<linearGradient id="paint6_linear" x1="58.2852" y1="59.123" x2="63.1724" y2="64.5891" gradientUnits="userSpaceOnUse">
<stop stop-color="#45A1FA"/>
<stop offset="1" stop-color="#0074E4"/>
</linearGradient>
<linearGradient id="paint7_linear" x1="61.5234" y1="5.01074" x2="73.2607" y2="9.15647" gradientUnits="userSpaceOnUse">
<stop stop-color="#45A1FA"/>
<stop offset="1" stop-color="#0074E4"/>
</linearGradient>
<linearGradient id="paint8_linear" x1="18.3477" y1="0" x2="18.5277" y2="3.92606" gradientUnits="userSpaceOnUse">
<stop stop-color="#45A1FA"/>
<stop offset="1" stop-color="#0074E4"/>
</linearGradient>
<linearGradient id="paint9_linear" x1="15.1094" y1="3.00586" x2="19.5031" y2="3.17531" gradientUnits="userSpaceOnUse">
<stop stop-color="#45A1FA"/>
<stop offset="1" stop-color="#0074E4"/>
</linearGradient>
<linearGradient id="paint10_linear" x1="19.4297" y1="59.123" x2="19.6194" y2="63.0482" gradientUnits="userSpaceOnUse">
<stop stop-color="#45A1FA"/>
<stop offset="1" stop-color="#0074E4"/>
</linearGradient>
<linearGradient id="paint11_linear" x1="57.207" y1="56.1172" x2="60.8735" y2="57.7575" gradientUnits="userSpaceOnUse">
<stop stop-color="#45A1FA"/>
<stop offset="1" stop-color="#0074E4"/>
</linearGradient>
<linearGradient id="paint12_linear" x1="19.4297" y1="56.1172" x2="23.0961" y2="57.7575" gradientUnits="userSpaceOnUse">
<stop stop-color="#45A1FA"/>
<stop offset="1" stop-color="#0074E4"/>
</linearGradient>
<linearGradient id="paint13_linear" x1="61.5234" y1="3.00586" x2="65.9172" y2="3.17531" gradientUnits="userSpaceOnUse">
<stop stop-color="#45A1FA"/>
<stop offset="1" stop-color="#0074E4"/>
</linearGradient>
<linearGradient id="paint14_linear" x1="0" y1="5.01074" x2="0.434327" y2="8.89651" gradientUnits="userSpaceOnUse">
<stop stop-color="#45A1FA"/>
<stop offset="1" stop-color="#0074E4"/>
</linearGradient>
<linearGradient id="paint15_linear" x1="5.39844" y1="55.1152" x2="6.02163" y2="58.9482" gradientUnits="userSpaceOnUse">
<stop stop-color="#45A1FA"/>
<stop offset="1" stop-color="#0074E4"/>
</linearGradient>
<linearGradient id="paint16_linear" x1="0" y1="5.01074" x2="4.39031" y2="5.21969" gradientUnits="userSpaceOnUse">
<stop stop-color="#45A1FA"/>
<stop offset="1" stop-color="#0074E4"/>
</linearGradient>
<linearGradient id="paint17_linear" x1="0" y1="50.1045" x2="6.84251" y2="57.7572" gradientUnits="userSpaceOnUse">
<stop stop-color="#45A1FA"/>
<stop offset="1" stop-color="#0074E4"/>
</linearGradient>
<linearGradient id="paint18_linear" x1="5.39844" y1="50.1045" x2="9.391" y2="51.3803" gradientUnits="userSpaceOnUse">
<stop stop-color="#45A1FA"/>
<stop offset="1" stop-color="#0074E4"/>
</linearGradient>
<linearGradient id="paint19_linear" x1="0" y1="50.1045" x2="0.943486" y2="53.7978" gradientUnits="userSpaceOnUse">
<stop stop-color="#45A1FA"/>
<stop offset="1" stop-color="#0074E4"/>
</linearGradient>
<linearGradient id="paint20_linear" x1="7.55469" y1="19.04" x2="8.30671" y2="22.8249" gradientUnits="userSpaceOnUse">
<stop stop-color="#45A1FA"/>
<stop offset="1" stop-color="#0074E4"/>
</linearGradient>
<linearGradient id="paint21_linear" x1="7.55469" y1="25.0527" x2="8.30671" y2="28.8376" gradientUnits="userSpaceOnUse">
<stop stop-color="#45A1FA"/>
<stop offset="1" stop-color="#0074E4"/>
</linearGradient>
<linearGradient id="paint22_linear" x1="7.55469" y1="31.0645" x2="8.30671" y2="34.8493" gradientUnits="userSpaceOnUse">
<stop stop-color="#45A1FA"/>
<stop offset="1" stop-color="#0074E4"/>
</linearGradient>
<linearGradient id="paint23_linear" x1="7.55469" y1="37.0771" x2="8.30671" y2="40.862" gradientUnits="userSpaceOnUse">
<stop stop-color="#45A1FA"/>
<stop offset="1" stop-color="#0074E4"/>
</linearGradient>
<linearGradient id="paint24_linear" x1="29.1367" y1="15.0498" x2="29.4857" y2="18.9529" gradientUnits="userSpaceOnUse">
<stop stop-color="#45A1FA"/>
<stop offset="1" stop-color="#0074E4"/>
</linearGradient>
<linearGradient id="paint25_linear" x1="38.8516" y1="12.043" x2="43.2169" y2="12.4335" gradientUnits="userSpaceOnUse">
<stop stop-color="#45A1FA"/>
<stop offset="1" stop-color="#0074E4"/>
</linearGradient>
<linearGradient id="paint26_linear" x1="30.2188" y1="35.0947" x2="30.6058" y2="38.9906" gradientUnits="userSpaceOnUse">
<stop stop-color="#45A1FA"/>
<stop offset="1" stop-color="#0074E4"/>
</linearGradient>
<linearGradient id="paint27_linear" x1="25.8945" y1="42.1064" x2="26.1638" y2="46.0222" gradientUnits="userSpaceOnUse">
<stop stop-color="#45A1FA"/>
<stop offset="1" stop-color="#0074E4"/>
</linearGradient>
<linearGradient id="paint28_linear" x1="32.375" y1="45.1123" x2="32.8693" y2="48.9835" gradientUnits="userSpaceOnUse">
<stop stop-color="#45A1FA"/>
<stop offset="1" stop-color="#0074E4"/>
</linearGradient>
<linearGradient id="paint29_linear" x1="25.8984" y1="24.0703" x2="30.0869" y2="31.5655" gradientUnits="userSpaceOnUse">
<stop stop-color="#45A1FA"/>
<stop offset="1" stop-color="#0074E4"/>
</linearGradient>
<linearGradient id="paint30_linear" x1="25.8984" y1="24.0703" x2="26.736" y2="27.8174" gradientUnits="userSpaceOnUse">
<stop stop-color="#45A1FA"/>
<stop offset="1" stop-color="#0074E4"/>
</linearGradient>
<linearGradient id="paint31_linear" x1="25.8984" y1="15.0479" x2="34.6414" y2="19.4915" gradientUnits="userSpaceOnUse">
<stop stop-color="#45A1FA"/>
<stop offset="1" stop-color="#0074E4"/>
</linearGradient>
<linearGradient id="paint32_linear" x1="29.1367" y1="15.0479" x2="37.8798" y2="19.4919" gradientUnits="userSpaceOnUse">
<stop stop-color="#45A1FA"/>
<stop offset="1" stop-color="#0074E4"/>
</linearGradient>
<linearGradient id="paint33_linear" x1="45.3242" y1="24.0703" x2="49.5127" y2="31.5655" gradientUnits="userSpaceOnUse">
<stop stop-color="#45A1FA"/>
<stop offset="1" stop-color="#0074E4"/>
</linearGradient>
<linearGradient id="paint34_linear" x1="45.3242" y1="24.0703" x2="46.1618" y2="27.8174" gradientUnits="userSpaceOnUse">
<stop stop-color="#45A1FA"/>
<stop offset="1" stop-color="#0074E4"/>
</linearGradient>
<linearGradient id="paint35_linear" x1="45.3281" y1="15.0479" x2="54.0711" y2="19.4915" gradientUnits="userSpaceOnUse">
<stop stop-color="#45A1FA"/>
<stop offset="1" stop-color="#0074E4"/>
</linearGradient>
<linearGradient id="paint36_linear" x1="48.5625" y1="15.0479" x2="57.3055" y2="19.4919" gradientUnits="userSpaceOnUse">
<stop stop-color="#45A1FA"/>
<stop offset="1" stop-color="#0074E4"/>
</linearGradient>
</defs>
</svg>
